<svg width="68" height="68" viewBox="0 0 68 68" fill="none"
  xmlns="http://www.w3.org/2000/svg">
  <g filter="url(#filter0_d)">
    <path fill-rule="evenodd" clip-rule="evenodd" d="M36.6475 7.64751C36.6475 6.18533 35.4622 5 34 5C32.5378 5 31.3525 6.18533 31.3525 7.64751V14.1455C27.802 14.6144 24.5448 16.0134 21.8337 18.0896L20.0606 16.3164C19.0266 15.2825 17.3503 15.2825 16.3164 16.3164C15.2825 17.3503 15.2825 19.0267 16.3164 20.0606L18.0896 21.8338C16.0134 24.5448 14.6144 27.802 14.1455 31.3525H7.64751C6.18533 31.3525 5 32.5378 5 34C5 35.4622 6.18533 36.6475 7.64751 36.6475H14.1455C14.6162 40.2115 16.0241 43.48 18.1134 46.1973L16.3164 47.9943C15.2825 49.0282 15.2825 50.7045 16.3164 51.7384C17.3503 52.7723 19.0266 52.7723 20.0606 51.7384L21.8648 49.9341C24.5697 51.9973 27.8156 53.3874 31.3525 53.8545V60.3525C31.3525 61.8147 32.5378 63 34 63C35.4622 63 36.6475 61.8147 36.6475 60.3525V53.8545C40.198 53.3856 43.4552 51.9866 46.1662 49.9104L47.9943 51.7384C49.0282 52.7723 50.7045 52.7723 51.7384 51.7384C52.7723 50.7045 52.7723 49.0282 51.7384 47.9943L49.9104 46.1662C51.9866 43.4552 53.3856 40.198 53.8545 36.6475H60.3525C61.8147 36.6475 63 35.4622 63 34C63 32.5378 61.8147 31.3525 60.3525 31.3525H53.8545C53.3874 27.8156 51.9973 24.5697 49.9341 21.8648L51.7384 20.0606C52.7723 19.0267 52.7723 17.3503 51.7384 16.3164C50.7045 15.2825 49.0282 15.2825 47.9943 16.3164L46.1973 18.1134C43.48 16.0241 40.2115 14.6162 36.6475 14.1455V7.64751ZM48.7329 34C48.7329 42.1367 42.1367 48.7329 34 48.7329C25.8633 48.7329 19.2671 42.1367 19.2671 34C19.2671 25.8633 25.8633 19.2671 34 19.2671C42.1367 19.2671 48.7329 25.8633 48.7329 34Z" fill="#FFFFFF" />
  </g>
  <defs>
    <filter id="filter0_d" x="0" y="0" width="68" height="68" filterUnits="userSpaceOnUse" color-interpolation-filters="sRGB">
      <feFlood flood-opacity="0" result="BackgroundImageFix" />
      <feColorMatrix in="SourceAlpha" type="matrix" values="0 0 0 0 0 0 0 0 0 0 0 0 0 0 0 0 0 0 127 0" />
      <feOffset />
      <feGaussianBlur stdDeviation="2.5" />
      <feColorMatrix type="matrix" values="0 0 0 0 1 0 0 0 0 1 0 0 0 0 1 0 0 0 0.85 0" />
      <feBlend mode="normal" in2="BackgroundImageFix" result="effect1_dropShadow" />
      <feBlend mode="normal" in="SourceGraphic" in2="effect1_dropShadow" result="shape" />
    </filter>
  </defs>
</svg>
