<?xml version="1.0"?>
<svg xmlns:rdf="http://www.w3.org/1999/02/22-rdf-syntax-ns#" xmlns="http://www.w3.org/2000/svg" xmlns:cc="http://web.resource.org/cc/" xmlns:xlink="http://www.w3.org/1999/xlink" xmlns:dc="http://purl.org/dc/elements/1.1/" xmlns:svg="http://www.w3.org/2000/svg" id="path_to_star_xA0_Image_1_" style="enable-background:new 0 0 250.08 232.8" xml:space="preserve" viewBox="0 0 250.08 232.8" version="1.1" y="0px" x="0px">
<g clip-rule="evenodd" fill-rule="evenodd">
	<path d="m164.16 4.32c-0.507 0.966-1.8 0.917-2.641 1.2-2.712 0.914-5.262 2.122-7.92 3.36-3.436 1.601-7.06 2.955-10.56 4.56-1.751 0.804-3.449 1.731-5.28 2.4-3.638 1.33-7.092 2.771-10.8 4.08-1.643 0.581-3.667 1.858-5.52 0.96 0.112-1.168 1.263-1.297 2.4-1.44 12.31-4.782 26.386-11.171 38.4-15.84 0.46-0.179 1.59-0.017 1.92 0.72z"/>
	<path d="m58.08 4.32c2.152-0.063 3.929 1.406 6 2.88 3.058 2.176 5.808 3.908 8.88 6 1.104 0.751 3.664 2.049 2.88 3.6-1.54 0.135-3.112-1.479-4.56-2.4-4.375-2.782-8.918-6.065-13.2-9.12v-0.96z"/>
	<path d="m73.2 22.32c-0.49 0.82-2.601 0.047-3.6-0.24-13.227-3.794-26.44-8.264-40.56-12-2.138-0.566-4.709-1.387-7.44-2.16-2.264-0.641-6.666-0.82-6.72-2.88 0.176-0.224 0.437-0.364 0.72-0.48 17.027 4.483 34.766 9.863 51.6 14.88 1.095 0.327 2.429 0.769 3.6 1.2 0.764 0.282 2.597 0.176 2.4 1.68z"/>
	<path d="m83.28 9.36c-0.345 0.134-0.585 0.375-0.72 0.72-2.003-1.197-3.543-2.857-4.32-5.28 0.213-0.186 0.542-0.258 0.96-0.24 1.662 1.298 3.098 2.822 4.08 4.8z"/>
	<path d="m116.88 5.04c-1.025 1.374-1.792 5.201-4.32 4.56 0.293-2.347 2.066-3.213 2.88-5.04 0.83-0.19 1.01 0.267 1.44 0.48z"/>
	<path d="m95.04 52.56c-0.776 0.023-0.512 1.088-1.68 0.72-4.886-0.949-7.771-2.698-10.8-5.52-0.473-0.441-1.171-1.079-1.68-1.68-0.242-0.287-0.21-0.872-0.48-1.2-0.263-0.319-0.837-0.294-0.96-0.48-0.323-0.488-0.575-1.48-0.96-2.16-2.204-3.892-4.074-8.21-3.36-14.64 0.15-1.353 0.079-2.92 0.48-4.32 0.203-0.709 0.985-1.659 1.44-2.64 2.022-4.361 4.774-6.801 9.12-9.36 3.2-1.885 6.803-3.503 12-3.36 4.643 0.128 10.416 2.006 13.44 4.32 5.489 4.201 11.205 13.917 9.12 23.76-0.459 2.169-1.612 4.255-2.64 6-0.882 1.497-1.473 2.333-2.64 3.84-0.16 0.206-0.387-0.107-0.48 0.24-0.165 0.618-1.777 2.188-2.4 2.64-0.47 0.341-1.304 0.351-1.92 0.72-1.151 0.689-2.811 2.287-4.32 2.88-1.166 0.458-3.076 0.917-4.56 1.2-2.017 0.385-3.506 0.263-6 0.24-0.29-0.35-1.049-0.231-0.72-1.2zm-1.68-29.04c1.089 0.991 1.768 2.393 3.12 3.12 1.369-0.475 2.581 0.174 3.6 0.72 0.907-1.333 2.11-2.37 3.12-3.6-1.715-1.934-2.642-4.703-3.6-7.44-0.594-1.696-1.455-3.44-1.68-4.8-0.085-0.515 0.557-1.198-0.24-1.2-1.584 4.256-2.29 9.39-4.32 13.2zm6.96-9.84c0.691 3.629 2.521 6.119 3.6 9.36 2.222-0.338 4.244-0.876 6.96-0.72 1.226-1.094 2.889-1.751 3.12-3.84-1.668 0.171-3.265 0.415-4.8 0.72-0.952-1.362 0.339-3.962 0.72-5.52-1.981 0.338-2.632 2.008-4.8 2.16-1.486-0.833-1.181-3.459-1.92-5.04-1.9 0.017-1.4 2.441-2.88 2.88zm-9.36-2.16c-0.29 1.917 0.731 3.668-0.48 4.56-2.048-0.192-3.296-1.184-4.8-1.92-0.083 1.285 0.648 3.611 0 5.28-1.93 0.09-2.911-0.769-4.8-0.72 0.503 1.417 1.369 2.472 1.92 3.84 3.833-0.136 5.691 0.341 9.36 0.48 1.422-2.498 2.027-5.812 2.88-8.88-1.169-0.942-2.889-2.509-4.08-2.64zm13.68 12.72c-1.344 1.296-2.477 2.804-3.6 4.32 0.435 0.605 0.823 1.257 0.72 2.4 1.844 0.134 2.922 1.223 4.32 0.96 1.196-0.225 2.173-1.966 3.36-2.88 1.621-1.249 3.001-2.045 4.56-2.64 0.729-1.751 3.281-1.679 4.08-3.36-4.12 0.185-8.71 0.944-13.44 1.2zm-26.16 0c4.216 2.424 8.068 5.212 11.76 8.16 0.971-0.708 2.77-0.59 3.84-1.2-0.232-1.832 0.367-2.833 1.2-3.6-1.295-0.864-2.104-2.216-3.12-3.36-4.921 0.475-10.69-0.78-13.68 0zm35.04 3.36c-1.987 2.013-4.583 3.417-6.24 5.76 1.229 2.452 2.39 4.97 3.12 7.92h5.04c-0.4-1.92-1.974-2.666-2.4-4.56 1.385-0.988 3.963-1.333 5.76-1.2-1.174-1.706-3.692-2.068-4.56-4.08 0.917-1.483 3.421-1.379 4.56-2.64-1.95-0.208-3.6-0.721-5.28-1.2zm-31.92 0.48c-0.386-0.255-1.109-0.131-1.44 0-0.85 0.337-2.335 1.103-2.88 1.92 1.141 1.26 3.364 1.436 4.08 3.12-1.146 1.254-2.66 2.14-3.36 3.84 1.626 0.534 3.565 0.754 5.04 1.44-0.235 1.845-1.215 2.945-1.68 4.56 1.706 0.186 2.677-0.363 4.32-0.24 1.03-3.29 2.486-6.154 3.6-9.36-2.095-1.104-5.675-3.956-7.68-5.28zm15.84 5.04c3.34 0.327 3.82-5.59 0-4.8-3.01 0.622-2.52 4.553 0 4.8zm3.84-0.48c-0.472 1.048-1.224 1.816-2.4 2.16-0.299 1.443-0.346 3.083-0.48 4.08 4.178 2.462 7.979 5.302 12.24 7.68-1.267-4.413-3.182-8.179-4.32-12.72-1.73-0.347-3.28-0.876-5.04-1.2zm-7.2 0.24c-1.213-0.142-2.142 0.978-3.6 0.96-1.298 4.702-3.476 8.525-4.8 13.2 3.888-2.512 7.405-5.395 11.52-7.68-0.261-1.74-0.243-2.579 0-4.56-1.251-0.33-1.893-1.777-3.12-1.92zm3.84 7.44c-2.484 1.516-4.552 3.448-7.2 4.8-0.316 1.739 0.102 3.793 0.48 5.52 1.895-0.505 1.986-2.814 3.84-3.36 1.747 0.653 1.223 3.577 3.6 3.6 1.069-1.171 1.222-3.258 2.4-4.32 1.602 0.798 2.258 2.542 3.84 3.36 0.428-1.412 0.729-2.951 0.96-4.56-2.88-1.445-5.34-3.3-7.92-5.04z"/>
	<path d="m72.24 29.28c-0.589 1.459-2.642 0.947-3.84 0.96-12.481 0.143-24.002-0.159-35.04 0.48-4.704 0.272-9.575 0.134-14.88 0-1.194-0.03-3.372 0.542-3.84-1.2 1.202-1.548 3.814-0.978 5.52-0.96 2.991 0.032 6.952 0.546 10.32 0 1.3-0.211 3.798 0.005 5.76 0 9.451-0.023 19.202-0.24 31.44-0.24 1.453 0 3.565-0.577 4.56 0.96z"/>
	<path d="m123.6 29.76c-0.021-1.501 3.303-1.432 4.56-1.44 18.155-0.121 39.222 0 58.319 0 6.263 0 12.436 0.038 18.24 0.24 7.351 0.257 13.273-0.036 20.4 0 1.847 0.009 7.085-1.218 7.2 0.72 0.072 1.22 0.036 0.777-2.16 0.96-6.213 0.517-13.132 0.056-18.24 0-3.579-0.039-6.915 0.179-10.32 0.24-10.963 0.197-19.816-0.171-31.199-0.24-7.438-0.045-15.479 0-23.521 0-7.78 0-15.76 0.386-23.28-0.48z"/>
	<path d="m233.52 69.36c-2.441 0.327-4.658-1.004-6.96-1.68-6.854-2.013-13.768-3.956-20.88-6-9.001-2.587-18.035-5.988-27.359-8.4-8.956-2.317-18.33-4.912-27.841-7.92-2.309-0.73-4.693-1.139-7.199-1.92-5.362-1.671-11.029-3.219-17.28-5.04-1.657-0.483-2.717-0.38-2.88-1.68-0.011-0.411 0.178-0.622 0.48-0.72 15.633 4.357 31.952 9.217 48 13.68 13.938 3.876 27.649 7.967 41.761 12 4.211 1.203 8.979 2.801 13.68 4.08 2.12 0.576 6.44 0.406 6.48 3.6z"/>
	<path d="m73.92 40.56c-1.455 1.79-3.96 2.1-6 2.88-11.919 4.56-24.639 10.086-36.96 14.88-2.049 0.797-4.028 1.989-6 2.64-0.602 0.199-1.314 0.029-1.92 0.24-1.223 0.426-2.685 1.166-4.08 1.68-1.154 0.425-2.837 1.789-4.08 0.24 0.334-1.063 1.59-1.806 2.4-2.16 1.995-0.873 4.803-1.35 7.2-2.16 1.971-0.666 3.989-1.632 6-2.4 5.83-2.227 11.653-4.651 17.52-6.96 8.162-3.212 16.26-6.308 23.52-9.36 0.578-0.243 1.979-0.678 2.4 0.48z"/>
	<path d="m189.84 88.08c-1.756 0.123-3.382-1.039-4.8-1.92-7.158-4.451-14.408-9.073-21.84-13.68-8.522-5.283-17.528-10.762-26.16-16.32-1.463-0.942-2.887-1.964-4.32-2.88-2.846-1.819-5.527-3.857-8.4-5.76-1.409-0.934-3.245-1.293-4.08-2.88-0.068-0.388 0.227-0.413 0.24-0.72 0.194-0.045 0.239-0.241 0.48-0.24h0.48c5.571 3.888 11.545 7.321 17.28 11.04 4.257 2.76 8.204 5.706 12.721 8.4 0.775 0.462 1.603 0.715 2.399 1.2 8.753 5.32 18.51 11.039 27.12 17.04 1.6 1.115 3.692 1.961 5.52 3.12 1.25 0.793 3.17 1.83 3.36 3.6z"/>
	<path d="m77.52 46.32c0.373 1.568-1.496 2.63-2.4 3.36-3.22 2.598-6.863 5.023-10.32 7.68-0.237 0.182-0.116 0.289-0.48 0.48-0.758 0.4-1.957 1.692-2.88 2.4-1.162 0.892-2.262 1.728-3.36 2.64-1.682 1.398-3.129 2.69-5.04 4.08-8.36 6.082-16.653 13.53-25.2 19.92-1.012 0.756-2.485 2.22-3.84 0.72-0.163-1.255 2.027-2.095 3.12-2.88 6.566-5.48 13.758-10.632 20.64-16.08 3.151-2.495 6.287-4.94 9.36-7.44 6.308-5.13 12.563-10.293 18.96-14.64 0.225-0.153 0.399-0.418 0.72-0.48 0.193 0.127 0.389 0.251 0.72 0.24z"/>
	<path d="m82.32 51.6c1.062 1.74-0.86 2.947-1.68 4.08-0.486 0.671-0.722 1.508-1.2 2.16-2.128 2.902-4.968 6.584-7.2 9.6v1.44h-0.96c-1.058 2.277-3.201 4.118-4.56 6.24-0.496 0.774-0.661 1.646-1.2 2.4-0.751 1.05-1.853 1.802-2.64 2.88-1.474 2.018-2.646 4.065-4.32 6.24-0.63 0.819-1.291 2.672-2.88 1.92-0.756-1.5 0.976-2.832 1.68-3.84 2.343-3.356 4.527-6.793 7.2-10.08 2.831-3.482 5.797-7.916 8.64-11.76 0.909-1.229 1.525-2.696 2.4-3.84 0.877-1.146 2.045-1.934 2.88-3.12 0.223-0.316-0.026-0.478 0.24-0.72 0.833-0.757 1.7-2.494 2.64-3.6h0.96z"/>
	<path d="m139.92 88.08c-1.374 0.336-2.049-1.182-2.64-1.92-1.837-2.295-3.619-4.917-5.521-7.44-6.364-8.443-13.137-16.935-18.96-25.92 0.029-0.61 0.35-0.931 0.96-0.96 1.484 0.791 2.072 2.521 3.12 3.84 4.127 5.198 7.856 11.593 12.72 16.32 0.901 2.779 3.22 4.14 4.32 6.72 0.219 0.421 0.841 0.439 1.2 0.72-0.015 1.548 1.514 2.894 2.64 4.32 1.05 1.327 2.91 2.783 2.16 4.32z"/>
	<path d="m94.32 56.4c-1.001 4.93-0.969 10.554-1.44 16.08-0.359 4.217-0.547 8.253-0.96 12-0.108 0.986 0.471 2.459-0.72 3.12 1.757 1.696 4.138 2.438 6.24 3.6 6.144 3.395 12.852 6.646 19.44 9.84 4.37 2.119 8.871 4.037 13.2 6.24 21.098 10.735 43.064 21.938 64.56 32.641-16.073 4.668-32.959 8.531-49.92 12-17.012 3.479-33.806 7.883-50.64 11.279-5.751 1.899-13.004 3.084-19.44 4.8-5.567 1.485-11.252 2.672-17.04 3.841 0.606 1.567 2.258 2.369 3.36 3.359 6.855 6.159 14.327 12.599 21.36 18.96 5.651 5.112 11.919 10.479 17.76 15.84 3.499 3.213 6.876 6.361 10.56 9.601 0.959 0.843 2.963 1.572 2.64 3.36-3.951 0.234-8.042 0.146-12.24 0.239-9.417 0.211-19.322-0.487-28.32 0.721-0.634-0.328-3.079-0.791-4.32 0-6.088-4.943-11.659-10.699-17.28-16.32-1.707-1.707-3.261-3.271-5.04-5.04-5.338-5.308-11.881-10.442-17.28-16.08-2.557-2.67-5.243-5.967-8.16-8.64-1.135-1.041-2.521-2.014-3.6-3.12-0.94-0.965-2.341-2.07-2.4-3.601 11.219-2.297 22.582-4.227 33.84-6.479 5.676-1.137 11.431-1.834 17.04-3.12 8.058-1.848 16.057-2.821 24.48-4.32 0.606-0.107 1.197-0.356 1.92-0.479 0.479-0.082 1.157-0.381 1.68-0.48 5.838-1.104 11.544-2.07 17.52-3.12 2.18-0.383 4.295-0.971 6.48-1.439 2.298-0.494 4.648-0.55 6.96-0.96 2.247-0.399 4.507-1.024 6.72-1.44 15.437-2.898 31.547-5.155 46.8-8.88-1.68-1.648-3.991-2.294-6-3.36-3.837-2.035-7.618-4.378-11.76-6.479-2.01-1.02-3.799-2.276-5.761-3.36-9.85-5.443-19.863-10.511-30-15.84-1.991-1.046-3.793-2.255-5.76-3.36-1.982-1.113-4.191-1.803-6.24-2.88-9.564-5.028-19.888-10.373-29.28-16.32 1.823-4.946 2.989-10.59 4.32-16.08 0.654-2.696 1.443-5.342 2.16-7.92 0.752-2.705 1.417-5.332 1.92-7.92 0.326-0.714 1.658-0.422 2.64-0.48z"/>
	<path d="m103.44 56.4c0.905 0.981 1.138 2.341 1.44 3.6 2.224 9.27 4.861 17.764 7.2 27.6 4.276 2.017 8.732 4.204 13.44 6 8.363 3.191 16.988 6.456 25.44 10.08 2.415 1.036 4.762 2.462 7.2 3.6 5.065 2.364 10.333 4.202 15.359 6.48 17.733 8.035 35.997 14.672 53.521 23.04 2.389 1.141 5.231 1.645 7.2 3.6-2.034 3.176-6.157 3.696-9.36 4.8-1.693 0.584-3.371 1.381-5.04 1.92-22.467 7.265-44.825 16.593-66.96 24.24 1.372 1.269 3.367 2.24 5.28 3.12 1.286 1.514 3.53 2.069 5.04 3.36 10.938 7.319 22.824 13.543 34.08 20.64 3.606 2.274 7.464 4.716 11.279 6.96 3.011 1.771 5.905 3.688 8.881 5.521 0.795 0.489 1.809 0.68 2.64 1.199 0.353 0.221 0.546 0.653 0.96 0.96 1.611 1.196 3.73 2.192 5.52 3.36 1.469 0.959 2.977 1.809 4.561 2.64 1.365 0.717 3.632 1.369 3.84 3.36-14.084-0.319-26.479-0.11-40.56 0-18.187-12.502-36.147-25.412-54-38.4-5.149-3.745-9.946-7.811-15.121-11.76-0.667-0.509-1.844-0.865-1.92-1.92 8.77-3.232 17.657-6.051 26.88-9.12 5.232-1.741 10.924-3.404 16.56-5.28 2.425-0.807 4.988-1.361 7.44-2.159 14.216-4.63 29.133-9.521 43.92-13.92-0.234-0.759-0.858 0.029-0.96 0-0.444-0.13-0.215-0.556-0.48-0.721-3.494-2.174-8.152-4.171-12.24-6-9.568-4.282-19.359-8.495-29.039-12.72-4.818-2.103-9.429-4.457-14.16-6.72-9.507-4.547-19.266-8.653-28.801-12.96-9.603-4.338-19.08-8.742-28.319-13.44-0.737-10.633-2.897-20.664-2.88-30.72 0.96 0.165 1.37-0.23 2.16-0.24z"/>
	<path d="m99.84 56.88c0.489 8.638 2.269 17.97 2.88 26.4 0.095 1.318 0.409 3.101-0.48 3.6 0.459 1.394 1.809 1.424 2.88 1.92 3.294 1.526 6.625 3.608 10.08 5.28 2.333 1.13 4.885 1.989 7.2 3.12 11.302 5.521 23.679 10.54 35.28 16.32 17.297 8.618 35.066 16.462 53.04 24.479 1.045 0.467 2.417 0.885 3.12 1.921-17.191 5.901-34.771 10.458-52.32 15.6-17.325 5.076-34.506 11.151-52.319 15.36 2.463 2.438 5.393 4.453 8.16 6.479 2.805 2.055 5.43 4.348 8.16 6.48 2.727 2.13 5.347 4.405 8.16 6.479 2.758 2.034 5.725 3.841 8.4 6 8.038 6.485 16 13.031 24.24 19.44 2.021 1.571 3.856 3.202 5.76 5.04 0.628 0.605 1.894 0.766 1.68 1.92-1.348 0.727-4.059 0.074-5.76 0-6.505-0.286-12.505 0.117-18.24 0-2.979-0.062-5.919 0.18-8.88 0.24-2.852 0.058-5.779-0.439-8.64 0.239-5.035-4.244-10.363-8.196-14.88-12.96-1.556-0.672-2.646-2.022-3.84-3.12-1.554-1.428-3.121-2.693-4.8-4.08-1.935-1.597-4.31-3.768-6.24-5.76-5.387-3.831-10.337-8.243-15.36-12.479-3.766-3.177-7.414-6.344-11.28-9.601-1.183-0.996-2.938-1.891-3.36-3.6 20.962-5.493 42.385-10.006 63.36-15.601 5.297-1.412 10.739-2.637 16.08-3.84 15.83-3.564 31.248-8.291 47.04-11.52-0.542-1.313-2.006-1.446-3.12-1.92-7.695-3.274-15.609-7.796-23.28-11.521-8.9-4.322-17.524-8.942-26.399-13.2-8.968-4.302-18.149-8.356-26.88-12.96-6.594-3.477-13.264-6.494-19.92-9.84-2.144-1.078-4.362-2.107-6.24-3.6-0.071-7.775 1.309-16.284 1.68-24.72 0.084-1.918-0.433-4.248 0.48-6 1.624 0.06 2.897-0.378 4.56 0z"/>
</g>
<!--<metadata><rdf:RDF><cc:Work><dc:format>image/svg+xml</dc:format><dc:type rdf:resource="http://purl.org/dc/dcmitype/StillImage"/><cc:license rdf:resource="http://creativecommons.org/licenses/publicdomain/"/><dc:publisher><cc:Agent rdf:about="http://openclipart.org/"><dc:title>Openclipart</dc:title></cc:Agent></dc:publisher><dc:title>path to star</dc:title><dc:date>2008-02-15T01:44:30</dc:date><dc:description>The Laughing Prince, A Book of Jugoslav Fairy Tales and Folk Tales by Parker Fillmore, 1921</dc:description><dc:source>http://openclipart.org/detail/14028/path-to-star-by-johnny_automatic-14028</dc:source><dc:creator><cc:Agent><dc:title>johnny_automatic</dc:title></cc:Agent></dc:creator><dc:subject><rdf:Bag><rdf:li>clip art</rdf:li><rdf:li>clipart</rdf:li><rdf:li>end</rdf:li><rdf:li>externalsource</rdf:li><rdf:li>finish</rdf:li><rdf:li>image</rdf:li><rdf:li>journey</rdf:li><rdf:li>media</rdf:li><rdf:li>path</rdf:li><rdf:li>png</rdf:li><rdf:li>public domain</rdf:li><rdf:li>road</rdf:li><rdf:li>star</rdf:li><rdf:li>sun</rdf:li><rdf:li>svg</rdf:li><rdf:li>travel</rdf:li></rdf:Bag></dc:subject></cc:Work><cc:License rdf:about="http://creativecommons.org/licenses/publicdomain/"><cc:permits rdf:resource="http://creativecommons.org/ns#Reproduction"/><cc:permits rdf:resource="http://creativecommons.org/ns#Distribution"/><cc:permits rdf:resource="http://creativecommons.org/ns#DerivativeWorks"/></cc:License></rdf:RDF></metadata>--></svg>
